name rise36.2859peak64.2979fall75.1499.mot
datacolumns 19
datarows 27
range 14.84494700000000 14.88827200000000
endheader
time	ground_force1_vx	ground_force1_vy	ground_force1_vz	ground_force1_px	ground_force1_py	ground_force1_pz	ground_force2_vx	ground_force2_vy	ground_force2_vz	ground_force2_px	ground_force2_py	ground_force2_pz	ground_torque1_x	ground_torque1_y	ground_torque1_z	ground_torque2_x	ground_torque2_y	ground_torque2_z	
14.84494700000000	62.61915300000000	771.79241900000000	52.70353300000000	0.44721300000000	0.00000000000000	0.08688600000000	0.00000000000000	0.00000000000000	0.00000000000000	0.00000000000000	0.00000000000000	0.00000000000000	0.00000000000000	34.33645000000000	0.00000000000000	0.00000000000000	0.00000000000000	0.00000000000000	
14.84661200000000	61.97854100000000	774.21376899999996	52.83505100000000	0.44590300000000	0.00000000000000	0.08691800000000	0.00000000000000	0.00000000000000	0.00000000000000	0.00000000000000	0.00000000000000	0.00000000000000	0.00000000000000	34.40090400000000	0.00000000000000	0.00000000000000	0.00000000000000	0.00000000000000	
14.84827800000000	61.33547700000000	776.50269000000003	52.97008900000000	0.44458100000000	0.00000000000000	0.08695300000000	0.00000000000000	0.00000000000000	0.00000000000000	0.00000000000000	0.00000000000000	0.00000000000000	0.00000000000000	34.46845600000000	0.00000000000000	0.00000000000000	0.00000000000000	0.00000000000000	
14.84994300000000	60.69053000000000	778.65765199999998	53.10854300000000	0.44324900000000	0.00000000000000	0.08699200000000	0.00000000000000	0.00000000000000	0.00000000000000	0.00000000000000	0.00000000000000	0.00000000000000	0.00000000000000	34.53905300000000	0.00000000000000	0.00000000000000	0.00000000000000	0.00000000000000	
14.85161300000000	60.04420500000000	780.67722600000002	53.25020800000000	0.44190700000000	0.00000000000000	0.08703400000000	0.00000000000000	0.00000000000000	0.00000000000000	0.00000000000000	0.00000000000000	0.00000000000000	0.00000000000000	34.61256400000000	0.00000000000000	0.00000000000000	0.00000000000000	0.00000000000000	
14.85327400000000	59.39694900000000	782.56010000000003	53.39479500000000	0.44055700000000	0.00000000000000	0.08707900000000	0.00000000000000	0.00000000000000	0.00000000000000	0.00000000000000	0.00000000000000	0.00000000000000	0.00000000000000	34.68878200000000	0.00000000000000	0.00000000000000	0.00000000000000	0.00000000000000	
14.85495000000000	58.74914900000000	784.30509300000006	53.54192500000000	0.43919900000000	0.00000000000000	0.08712700000000	0.00000000000000	0.00000000000000	0.00000000000000	0.00000000000000	0.00000000000000	0.00000000000000	0.00000000000000	34.76743300000000	0.00000000000000	0.00000000000000	0.00000000000000	0.00000000000000	
14.85661100000000	58.10113900000000	785.91116599999998	53.69114000000000	0.43783400000000	0.00000000000000	0.08717800000000	0.00000000000000	0.00000000000000	0.00000000000000	0.00000000000000	0.00000000000000	0.00000000000000	0.00000000000000	34.84817500000000	0.00000000000000	0.00000000000000	0.00000000000000	0.00000000000000	
14.85827800000000	57.45319900000000	787.37743899999998	53.84190800000000	0.43646400000000	0.00000000000000	0.08723100000000	0.00000000000000	0.00000000000000	0.00000000000000	0.00000000000000	0.00000000000000	0.00000000000000	0.00000000000000	34.93060600000000	0.00000000000000	0.00000000000000	0.00000000000000	0.00000000000000	
14.85994200000000	56.80555900000000	788.70320300000003	53.99362600000000	0.43508800000000	0.00000000000000	0.08728700000000	0.00000000000000	0.00000000000000	0.00000000000000	0.00000000000000	0.00000000000000	0.00000000000000	0.00000000000000	35.01427000000000	0.00000000000000	0.00000000000000	0.00000000000000	0.00000000000000	
14.86161000000000	56.15840100000000	789.88792699999999	54.14562900000000	0.43370800000000	0.00000000000000	0.08734500000000	0.00000000000000	0.00000000000000	0.00000000000000	0.00000000000000	0.00000000000000	0.00000000000000	0.00000000000000	35.09865900000000	0.00000000000000	0.00000000000000	0.00000000000000	0.00000000000000	
14.86327400000000	55.51186600000000	790.93127700000002	54.29719700000000	0.43232500000000	0.00000000000000	0.08740500000000	0.00000000000000	0.00000000000000	0.00000000000000	0.00000000000000	0.00000000000000	0.00000000000000	0.00000000000000	35.18322400000000	0.00000000000000	0.00000000000000	0.00000000000000	0.00000000000000	
14.86494700000000	54.86605200000000	791.83311800000001	54.44755800000000	0.43093900000000	0.00000000000000	0.08746700000000	0.00000000000000	0.00000000000000	0.00000000000000	0.00000000000000	0.00000000000000	0.00000000000000	0.00000000000000	35.26737600000000	0.00000000000000	0.00000000000000	0.00000000000000	0.00000000000000	
14.86660700000000	54.22101900000000	792.59352999999999	54.59590000000000	0.42955100000000	0.00000000000000	0.08753100000000	0.00000000000000	0.00000000000000	0.00000000000000	0.00000000000000	0.00000000000000	0.00000000000000	0.00000000000000	35.35049500000000	0.00000000000000	0.00000000000000	0.00000000000000	0.00000000000000	
14.86828000000000	53.57679600000000	793.21281099999999	54.74137500000000	0.42816100000000	0.00000000000000	0.08759700000000	0.00000000000000	0.00000000000000	0.00000000000000	0.00000000000000	0.00000000000000	0.00000000000000	0.00000000000000	35.43193300000000	0.00000000000000	0.00000000000000	0.00000000000000	0.00000000000000	
14.86994200000000	52.93337900000000	793.69148700000005	54.88310800000000	0.42677000000000	0.00000000000000	0.08766400000000	0.00000000000000	0.00000000000000	0.00000000000000	0.00000000000000	0.00000000000000	0.00000000000000	0.00000000000000	35.51102500000000	0.00000000000000	0.00000000000000	0.00000000000000	0.00000000000000	
14.87161400000000	52.29073800000000	794.03031699999997	55.02020200000000	0.42537900000000	0.00000000000000	0.08773200000000	0.00000000000000	0.00000000000000	0.00000000000000	0.00000000000000	0.00000000000000	0.00000000000000	0.00000000000000	35.58709100000000	0.00000000000000	0.00000000000000	0.00000000000000	0.00000000000000	
14.87327800000000	51.64882100000000	794.23029799999995	55.15174800000000	0.42398800000000	0.00000000000000	0.08780200000000	0.00000000000000	0.00000000000000	0.00000000000000	0.00000000000000	0.00000000000000	0.00000000000000	0.00000000000000	35.65944100000000	0.00000000000000	0.00000000000000	0.00000000000000	0.00000000000000	
14.87494800000000	51.00755500000000	794.29266800000005	55.27683200000000	0.42259700000000	0.00000000000000	0.08787200000000	0.00000000000000	0.00000000000000	0.00000000000000	0.00000000000000	0.00000000000000	0.00000000000000	0.00000000000000	35.72738500000000	0.00000000000000	0.00000000000000	0.00000000000000	0.00000000000000	
14.87661400000000	50.36685200000000	794.21891100000005	55.39454200000000	0.42120700000000	0.00000000000000	0.08794300000000	0.00000000000000	0.00000000000000	0.00000000000000	0.00000000000000	0.00000000000000	0.00000000000000	0.00000000000000	35.79023700000000	0.00000000000000	0.00000000000000	0.00000000000000	0.00000000000000	
14.87827800000000	49.72661100000000	794.01075700000001	55.50397200000000	0.41981800000000	0.00000000000000	0.08801500000000	0.00000000000000	0.00000000000000	0.00000000000000	0.00000000000000	0.00000000000000	0.00000000000000	0.00000000000000	35.84731900000000	0.00000000000000	0.00000000000000	0.00000000000000	0.00000000000000	
14.87993900000000	49.08672300000000	793.67017999999996	55.60423500000000	0.41843000000000	0.00000000000000	0.08808700000000	0.00000000000000	0.00000000000000	0.00000000000000	0.00000000000000	0.00000000000000	0.00000000000000	0.00000000000000	35.89796700000000	0.00000000000000	0.00000000000000	0.00000000000000	0.00000000000000	
14.88161400000000	48.44707100000000	793.19940099999997	55.69446600000000	0.41704500000000	0.00000000000000	0.08815900000000	0.00000000000000	0.00000000000000	0.00000000000000	0.00000000000000	0.00000000000000	0.00000000000000	0.00000000000000	35.94153800000000	0.00000000000000	0.00000000000000	0.00000000000000	0.00000000000000	
14.88327500000000	47.80753900000000	792.60088499999995	55.77382600000000	0.41566200000000	0.00000000000000	0.08823200000000	0.00000000000000	0.00000000000000	0.00000000000000	0.00000000000000	0.00000000000000	0.00000000000000	0.00000000000000	35.97741100000000	0.00000000000000	0.00000000000000	0.00000000000000	0.00000000000000	
14.88494000000000	47.16800900000000	791.87733500000002	55.84151500000000	0.41428100000000	0.00000000000000	0.08830400000000	0.00000000000000	0.00000000000000	0.00000000000000	0.00000000000000	0.00000000000000	0.00000000000000	0.00000000000000	36.00499600000000	0.00000000000000	0.00000000000000	0.00000000000000	0.00000000000000	
14.88661000000000	46.52836900000000	791.03169400000002	55.89677300000000	0.41290300000000	0.00000000000000	0.08837600000000	0.00000000000000	0.00000000000000	0.00000000000000	0.00000000000000	0.00000000000000	0.00000000000000	0.00000000000000	36.02373500000000	0.00000000000000	0.00000000000000	0.00000000000000	0.00000000000000	
14.88827200000000	45.88851100000000	790.06713100000002	55.93888300000000	0.41152700000000	0.00000000000000	0.08844700000000	0.00000000000000	0.00000000000000	0.00000000000000	0.00000000000000	0.00000000000000	0.00000000000000	0.00000000000000	36.03310700000000	0.00000000000000	0.00000000000000	0.00000000000000	0.00000000000000	
